<svg width="96" height="96" xmlns="http://www.w3.org/2000/svg" xmlns:xlink="http://www.w3.org/1999/xlink" xml:space="preserve" overflow="hidden"><defs><clipPath id="clip0"><rect x="400" y="168" width="96" height="96"/></clipPath></defs><g clip-path="url(#clip0)" transform="translate(-400 -168)"><path d="M486.136 210.537 475.781 204.62 475.018 190.12 460.518 189.357 454.6 179 440.352 181.855 421.052 225.455 414.827 231.68C409.715 236.791 409.715 245.078 414.826 250.189 419.936 255.301 428.223 255.302 433.335 250.191L439.242 244.284 483.286 224.784ZM469.31 195.831 469.865 206.369 454.435 218.305 446.835 210.705 458.771 195.275ZM434.732 219.815 429.713 226.3 428 224.588 431.531 216.612ZM433.264 212.691 436.3 205.829 441.515 211.044 437.2 216.626ZM432.564 229.154 437.583 222.666 442.475 227.558 435.987 232.577ZM438.838 235.428 445.326 230.409 448.526 233.609 440.55 237.139ZM448.515 227.942 454.1 223.624 459.315 228.839 452.45 231.876ZM445.664 225.091 440.05 219.477 444.369 213.9 451.246 220.777ZM444.579 187.128 451.541 185.736 455.6 192.836 443.984 207.855 438.037 201.908ZM419.069 245.949C416.307 243.178 416.307 238.696 419.069 235.925L421.836 233.159 431.859 243.181 429.092 245.948C426.322 248.709 421.84 248.71 419.069 245.949ZM478.013 220.562 463.233 227.1 457.287 221.154 472.3 209.542 479.4 213.601Z" fill="#0070C0"/></g></svg>